<svg id="Capa_1" data-name="Capa 1" xmlns="http://www.w3.org/2000/svg" viewBox="0 0 1080 1080"><defs><style>.cls-1{fill:#0e2a3f;}.cls-2{fill:#00a17e;}.cls-3{fill:#fff;}</style></defs><title>schoolmate-logo ICON SVG</title><path class="cls-1" d="M409.54,622.55C357.85,586.18,296.05,560.23,228.81,551l-2.33,77.32c53.63-4.16,110.7,5.3,164.38,28.09a500.2,500.2,0,0,1,149.25,96.83A519.47,519.47,0,0,0,409.54,622.55ZM851.42,551c-67.25,9.22-129,35.17-180.73,71.54A519.47,519.47,0,0,0,540.12,753.26a500.21,500.21,0,0,1,149.25-96.83c53.68-22.79,110.75-32.25,164.38-28.09Z"/><path class="cls-2" d="M428.75,688.24c-44.93-24.53-98.64-42-157.09-48.24l-2,52.14c46.62-2.81,96.23,3.57,142.89,18.94,46.73,15.14,91.34,37.26,129.73,65.29C512.21,742.6,473.82,712.63,428.75,688.24ZM812.85,640c-58.45,6.22-112.17,23.71-157.1,48.24s-83.47,54.35-113.5,88.13c38.4-28,83-50.16,129.73-65.29,46.66-15.37,96.27-21.75,142.89-18.94Z"/><polygon class="cls-1" points="540 308.7 319.81 412.03 540 515.36 760.18 412.03 540 308.7"/><polygon class="cls-1" points="540 527.09 429.67 475.32 429.67 493.39 429.67 563.01 540 605.24 650.33 563.01 650.33 493.39 650.33 475.32 540 527.09"/><path class="cls-3" d="M484,441q-5.22-4.74-5.22-13.6v-4.17H492v5q0,7.09,7.25,7.09a7.66,7.66,0,0,0,5.41-1.72q1.84-1.72,1.84-5.57A13.36,13.36,0,0,0,504,420q-2.55-3.49-9.41-8.39-8.65-6.25-12.08-11.31a19.84,19.84,0,0,1-3.43-11.41q0-8.65,5.34-13.39t15.52-4.74q10,0,15.2,4.74t5.15,13.6l-13.23,3v-3.75q0-3.75-1.78-5.47a7.23,7.23,0,0,0-5.21-1.72q-7,0-7,7a12,12,0,0,0,2.61,7.4q2.61,3.44,9.48,8.34,8.78,6.25,12.08,11.36a21.56,21.56,0,0,1,3.31,12q0,9-5.41,13.75t-15.71,4.79Q489.24,445.79,484,441Z"/><path class="cls-3" d="M541.27,371.81h20l8.9,52.2h0.25l8.9-52.2h20v72.94H586V389.52h-0.25l-10.18,55.23h-11.7l-10.18-55.23h-0.25v55.23H541.27V371.81Z"/></svg>